<?xml version="1.0" encoding="utf-8"?>
<!-- Generator: Adobe Illustrator 16.0.0, SVG Export Plug-In . SVG Version: 6.00 Build 0)  -->
<!DOCTYPE svg PUBLIC "-//W3C//DTD SVG 1.1//EN" "http://www.w3.org/Graphics/SVG/1.1/DTD/svg11.dtd">
<svg version="1.1" id="Layer_1" xmlns="http://www.w3.org/2000/svg" xmlns:xlink="http://www.w3.org/1999/xlink" x="0px" y="0px"
	 width="358.163px" height="254.256px" viewBox="0 0 358.163 254.256" enable-background="new 0 0 358.163 254.256"
	 xml:space="preserve">
<g>
	<g>
		<g>
			<circle stroke="#000000" stroke-miterlimit="10" cx="288.869" cy="69.294" r="68.794"/>
			<path stroke="#000000" stroke-width="1.1282" stroke-miterlimit="10" d="M313.629,133.494c0,0-48.723,28.453-70.264,57.685
				c-21.543,29.232-27.173,62.514-64.197,62.514c-37.021,0-37.746-29.233-58.159-58.465C100.6,165.995,60.5,136.763,60.5,136.763
				l65.865-104.054c54.065,39.969,110.735-8,110.735-8"/>
		</g>
	</g>
	<g>
		<g>
			<circle stroke="#000000" stroke-miterlimit="10" cx="69.294" cy="69.294" r="68.794"/>
			<path stroke="#000000" stroke-width="1.1282" stroke-miterlimit="10" d="M44.534,133.494c0,0,48.723,28.453,70.264,57.685
				c21.543,29.232,27.173,62.514,64.196,62.514c37.022,0,37.747-29.233,58.16-58.465c20.409-29.232,60.509-58.464,60.509-58.464
				L231.798,32.709c-54.065,39.969-110.735-8-110.735-8"/>
		</g>
	</g>
	<circle fill="#FFFFFF" stroke="#000000" stroke-width="1.2903" stroke-miterlimit="10" cx="290.259" cy="67.677" r="50"/>
	<circle fill="#FFFFFF" stroke="#000000" stroke-width="1.2903" stroke-miterlimit="10" cx="67.259" cy="67.677" r="50"/>
	<circle stroke="#000000" stroke-width="1.2903" stroke-miterlimit="10" cx="282.663" cy="71.177" r="15"/>
	<circle stroke="#000000" stroke-width="1.2903" stroke-miterlimit="10" cx="78.663" cy="71.177" r="15"/>
	<ellipse fill="#FFFFFF" stroke="#FFFFFF" stroke-width="5" stroke-miterlimit="10" cx="180.259" cy="228.01" rx="23.667" ry="10"/>
</g>
<g>
	<g>
		<g>
			<circle stroke="#000000" stroke-miterlimit="10" cx="69.294" cy="69.294" r="68.794"/>
			<path stroke="#000000" stroke-width="1.1282" stroke-miterlimit="10" d="M44.534,133.494c0,0,48.723,28.453,70.264,57.685
				c21.543,29.232,27.173,62.514,64.197,62.514c37.022,0,37.747-29.233,58.16-58.465c20.409-29.232,60.509-58.464,60.509-58.464
				L231.798,32.709c-54.065,39.969-110.735-8-110.735-8"/>
		</g>
	</g>
	<g>
		<g>
			<circle stroke="#000000" stroke-miterlimit="10" cx="288.869" cy="69.294" r="68.794"/>
			<path stroke="#000000" stroke-width="1.1282" stroke-miterlimit="10" d="M313.629,133.494c0,0-48.723,28.453-70.264,57.685
				c-21.543,29.232-27.173,62.514-64.197,62.514c-37.021,0-37.746-29.233-58.159-58.465C100.6,165.995,60.5,136.763,60.5,136.763
				l65.865-104.054c54.065,39.969,110.735-8,110.735-8"/>
		</g>
	</g>
	<circle fill="#FFFFFF" stroke="#000000" stroke-width="1.2903" stroke-miterlimit="10" cx="67.904" cy="67.677" r="50"/>
	<circle fill="#FFFFFF" stroke="#000000" stroke-width="1.2903" stroke-miterlimit="10" cx="290.904" cy="67.677" r="50"/>
	<circle stroke="#000000" stroke-width="1.2903" stroke-miterlimit="10" cx="75.5" cy="71.177" r="15"/>
	<circle stroke="#000000" stroke-width="1.2903" stroke-miterlimit="10" cx="279.5" cy="71.177" r="15"/>
	<ellipse fill="#FFFFFF" stroke="#FFFFFF" stroke-width="5" stroke-miterlimit="10" cx="177.904" cy="228.01" rx="23.666" ry="10"/>
</g>
</svg>
