<?xml version="1.0" encoding="utf-8"?>
<!-- Generator: Adobe Illustrator 16.0.0, SVG Export Plug-In . SVG Version: 6.00 Build 0)  -->
<!DOCTYPE svg PUBLIC "-//W3C//DTD SVG 1.1//EN" "http://www.w3.org/Graphics/SVG/1.1/DTD/svg11.dtd">
<svg version="1.1" id="Layer_1" xmlns="http://www.w3.org/2000/svg" xmlns:xlink="http://www.w3.org/1999/xlink" x="0px" y="0px"
	 width="536.959px" height="388.297px" viewBox="0 0 536.959 388.297" enable-background="new 0 0 536.959 388.297"
	 xml:space="preserve">
<g id="Layer_1_1_" display="none">
	<g display="inline">
		<g>
			<path fill="#29ABE2" d="M277.024-37.74c-41.609-25.59-95.391-19.87-140.149-6.65c-23.821,7.036-47.486,16.98-68.424,30.402
				c-5.835,3.741-11.4,7.888-16.79,12.241c-4.12,3.327-8.465,6.843-11.428,11.292c-4.664,7.002,1.687,15.279,5.392,21.072
				c21.478,33.585,45.532,64.825,80.839,84.729c32.686,18.426,71.172,26.529,108.5,25.796c1.932-0.038,1.937-3,0-3
				c-1.449,0-2.898,0-4.348,0c-1.935,0-1.935,3,0,3c1.449,0,2.898,0,4.348,0c0-1,0-2,0-3
				c-55.079,1.08-110.282-17.672-148.748-57.994c-10.307-10.804-19.22-22.88-27.618-35.197c-3.868-5.673-7.572-11.454-11.271-17.237
				c-2.503-3.915-6.542-9.13-5.617-14.086c0.837-4.49,6.133-8.191,9.335-10.961C57.451-2.879,64.374-7.813,71.5-12.382
				c11.394-7.303,23.748-13.169,36.205-18.419c26.82-11.301,55.575-18.848,84.624-21.081c28.539-2.194,58.432,1.51,83.182,16.732
				C277.164-34.133,278.669-36.729,277.024-37.74L277.024-37.74z"/>
		</g>
	</g>
	<g display="inline">
		<g>
			<path fill="#29ABE2" d="M63.225,58.533c38.48,0.859,77.109-0.353,115.341,4.941c36.347,5.034,72.98,19.948,110.058,13.483
				c-0.486-0.835-0.973-1.671-1.459-2.507c-20.198,21.771-45.541,38.634-75.67,41.694c-32.539,3.304-62.671-13.987-95.008-11.699
				c-1.918,0.136-1.932,3.137,0,3c17.521-1.24,34.527,3.653,51.425,7.573c15.889,3.686,31.854,5.753,48.124,3.594
				c29.004-3.847,53.752-21.024,73.25-42.041c1.076-1.16-0.008-2.76-1.459-2.507c-37.128,6.473-74.31-8.954-110.772-13.802
				c-37.753-5.02-75.85-3.882-113.829-4.729C61.289,55.49,61.293,58.49,63.225,58.533L63.225,58.533z"/>
		</g>
	</g>
	<g display="inline">
		<g>
			<path fill="#29ABE2" d="M110.323,106.345c3.125-15.877,0.114-31.765-2.174-47.537c-0.835,0.487-1.671,0.973-2.507,1.459
				c10.718,13.337,13.172,31.2,23.913,44.565c0.863,1.074,2.542,0.136,2.561-1.061c0.217-14.235,5.37-27.5,12.839-39.46
				c-0.914-0.12-1.828-0.239-2.742-0.358c4.305,16.401,7.172,33.182,17.542,47.097c0.702,0.942,2.447,1.047,2.742-0.358
				c3.394-16.187,10.698-30.958,20.501-44.207c-0.864,0-1.727,0-2.591,0c7.467,17.326,12.126,35.807,21.739,52.174
				c0.699,1.189,2.309,0.821,2.742-0.358c4.927-13.43,10.719-26.627,18.327-38.772c-0.914-0.119-1.828-0.239-2.742-0.358
				c4.292,11.138,5.933,23.165,13.194,32.967c0.755,1.018,2.337,0.975,2.742-0.358c3.42-11.27,7.535-22.328,13.979-32.251
				c-0.864,0-1.727,0-2.591,0c3.23,5.635,5.466,11.756,8.696,17.392c0.523,0.912,1.616,0.889,2.356,0.303
				c2.297-1.818,0.814-3.38,0.386-5.807c-0.335-1.903-3.227-1.094-2.893,0.798c0.051,0.289,0.682,2.653,0.386,2.888
				c0.785,0.101,1.57,0.202,2.356,0.303c-3.23-5.635-5.466-11.756-8.696-17.391c-0.582-1.015-1.99-0.926-2.591,0
				c-6.58,10.131-10.79,21.46-14.281,32.967c0.914-0.119,1.828-0.239,2.742-0.358c-7.102-9.586-8.696-21.359-12.893-32.25
				c-0.459-1.192-2.008-1.529-2.742-0.358c-7.743,12.36-13.615,25.821-18.629,39.488c0.914-0.119,1.828-0.239,2.742-0.358
				c-9.605-16.352-14.276-34.857-21.739-52.174c-0.496-1.149-2.008-0.787-2.591,0c-9.946,13.442-17.362,28.505-20.803,44.923
				c0.914-0.119,1.828-0.239,2.742-0.358c-10.216-13.708-13.001-30.232-17.24-46.381c-0.338-1.29-2.068-1.437-2.742-0.358
				c-7.742,12.398-13.023,26.229-13.248,40.975c0.854-0.354,1.707-0.707,2.561-1.061c-10.718-13.337-13.172-31.2-23.913-44.565
				c-1.062-1.322-2.693,0.174-2.507,1.459c2.206,15.209,5.188,30.629,2.174,45.941C107.059,107.437,109.95,108.242,110.323,106.345
				L110.323,106.345z"/>
		</g>
	</g>
	<g display="inline">
		<g>
			<path fill="#29ABE2" d="M80.408,63.226c6.351,11.015,14.08,22.401,18.327,34.424c0.64,1.811,3.539,1.031,2.893-0.798
				c-4.341-12.288-12.14-23.885-18.629-35.141C82.033,60.036,79.44,61.546,80.408,63.226L80.408,63.226z"/>
		</g>
	</g>
	<g display="inline">
		<g>
			<path fill="#29ABE2" d="M273.034-40.819c15.979,17.021,35.646,29.813,54.268,43.677c10.106,7.525,19.868,15.515,28.645,24.576
				c4.562,4.71,8.723,9.788,12.507,15.14c1.396,1.976,9.065,0.585,11.356,0.635c23.344,0.51,46.654,6.061,68.765,13.25
				c22.016,7.16,43.877,16.658,62.809,30.13c0.119-0.914,0.238-1.828,0.358-2.742c-30.996,7.862-63.493,7.554-95.254,7.555
				c-1.377,0-1.896,1.602-1.062,2.561c12.998,14.952,24.062,31.303,32.275,49.361c8.074,17.749,12.855,36.815,16.087,55.984
				c2.947,17.492-0.77,37.488,6.361,54.109c3.937,9.178,10.454,15.957,16.021,24.129c6.444,9.465,10.019,22.08,12.565,33.146
				c0.914-0.386,1.825-0.771,2.739-1.154c-7.716-10.797-21.846-13.521-33.146-19.019c-1.173-0.569-2.531,0.354-2.203,1.693
				c4.021,16.443,5.104,33.979,5.854,50.826c0.441,9.918,0.488,19.9-0.472,29.789c-0.577,5.94-1.271,14.736-6.083,19.014
				c-1.449,1.287,0.683,3.4,2.121,2.121c4.553-4.045,5.635-11.314,6.46-16.989c1.459-10.036,1.412-20.295,1.106-30.408
				c-0.554-18.229-1.742-37.363-6.096-55.148c-0.732,0.563-1.469,1.129-2.201,1.692c10.677,5.195,24.795,7.763,32.069,17.939
				c0.977,1.365,3.14,0.566,2.741-1.154c-2.377-10.324-6.013-20.381-10.566-29.946c-4.608-9.685-13.929-16.386-17.693-26.574
				c-6.642-17.965-3.811-37.781-6.955-56.457c-3.192-18.952-8.293-37.531-16.12-55.106c-8.153-18.31-19.631-34.881-32.745-49.967
				c-0.354,0.854-0.707,1.707-1.061,2.561c32.026-0.001,64.793,0.267,96.051-7.663c1.354-0.343,1.358-2.028,0.356-2.742
				c-17.924-12.755-38.411-21.762-59.116-28.951c-22.095-7.671-45.302-13.121-68.683-14.61c-2.619-0.167-5.244-0.24-7.869-0.274
				c-1.377-0.018-6.227,0.836-7.086-0.378c-3.335-4.718-7.092-9.134-11.021-13.364c-8.058-8.673-17.263-16.211-26.646-23.394
				c-19.455-14.897-40.441-27.991-57.32-45.968C273.828-44.354,271.711-42.228,273.034-40.819L273.034-40.819z"/>
		</g>
	</g>
	<g display="inline">
		<g>
			<path fill="#29ABE2" d="M311.778,127.287c-9.479,32.827-16.278,66.289-21.739,100c-0.163,1.006,0.401,1.818,1.446,1.896
				c23.389,1.752,45.373-16.509,60.943-31.912c8.534-8.442,15.707-17.356,15.396-29.936c-0.303-12.229-7.463-23.551-11.854-34.616
				c-0.703-1.776-3.604-1.003-2.893,0.797c3.809,9.604,8.968,18.765,11.143,28.94c2.913,13.645-4.828,23.562-13.916,32.691
				c-14.854,14.926-36.373,32.717-58.824,31.035c0.482,0.633,0.965,1.266,1.447,1.897c5.461-33.71,12.262-67.172,21.738-100
				C315.209,126.222,312.312,125.432,311.778,127.287L311.778,127.287z"/>
		</g>
	</g>
	<g display="inline">
		<g>
			<path fill="#29ABE2" d="M230.257,139.243c-8.587,31.281-15.237,63.036-22.826,94.565c-0.204,0.844,0.436,2.033,1.446,1.896
				c11.513-1.543,22.033-6.455,31.916-12.377c10.233-6.133,20.729-13.637,28.795-22.482c12.716-13.947,5.054-31.459,4.919-48.161
				c-0.752,0.432-1.505,0.863-2.257,1.295c3.354,1.913,27.531,14.737,23.608,19.384c-1.238,1.468,0.871,3.602,2.121,2.121
				c7.336-8.689-19.084-21.17-24.215-24.095c-0.979-0.559-2.269,0.146-2.259,1.295c0.123,15.182,7.371,31.988-3.209,45.073
				c-6.927,8.566-17.009,15.268-26.164,21.197c-10.045,6.508-21.277,12.145-33.257,13.75c0.482,0.633,0.964,1.268,1.446,1.898
				c7.589-31.527,14.24-63.285,22.826-94.565C233.663,138.172,230.768,137.38,230.257,139.243L230.257,139.243z"/>
		</g>
	</g>
	<g display="inline">
		<g>
			<path fill="#29ABE2" d="M352.382,196.139c8.105,6.732,13.697,15.894,18.862,24.945c5.455,9.562,10.724,19.215,13.396,29.973
				c5.586,22.478-5.715,43.273-17.275,61.74c-0.827,1.32,0.773,2.748,2.052,2.053c14.964-8.149,28.912-18.139,44.565-25
				c-0.754-0.432-1.507-0.863-2.259-1.295c-1.555,19.031-4.115,37.967-9.104,56.428c-4.151,15.374-9.257,30.55-21.511,41.277
				c-19.832,17.363-47.736,24.125-62.659,47.189c-0.726,1.119,0.464,2.557,1.692,2.203c32.963-9.465,68.308-23.496,103.192-18.705
				c15.925,2.188,30.158,11.686,42.495,21.444c12.605,9.976,24,21.574,34.375,33.83c0.732,0.867,2.249,0.375,2.507-0.659
				c3.849-15.431-2.223-30.947-9.544-44.365c-8.002-14.666-18.653-27.664-28.886-40.791c-1.188-1.523-3.295,0.615-2.121,2.121
				c9.209,11.813,18.542,23.514,26.247,36.396c8.042,13.445,15.386,29.908,11.411,45.842c0.836-0.221,1.671-0.44,2.507-0.661
				c-10.736-12.687-22.562-24.484-35.604-34.804c-12.456-9.854-26.655-18.748-42.592-21.246c-16.995-2.661-34.625,0.16-51.255,3.802
				c-18.108,3.965-35.733,9.795-53.533,14.903c0.563,0.734,1.129,1.472,1.693,2.203c15.276-23.608,44.998-30.322,64.788-48.938
				c11.12-10.46,15.692-25.966,19.686-40.246c5.207-18.633,7.64-37.984,9.21-57.226c0.104-1.256-1.321-1.705-2.257-1.295
				c-15.653,6.859-29.604,16.85-44.564,25c0.685,0.685,1.367,1.367,2.053,2.053c11.955-19.095,22.465-39.42,17.916-62.547
				c-2.188-11.115-7.836-21.062-13.275-30.846c-5.406-9.723-11.438-19.713-20.092-26.903
				C353.026,192.79,350.894,194.9,352.382,196.139L352.382,196.139z"/>
		</g>
	</g>
	<g display="inline">
		<g>
			<path fill="#29ABE2" d="M296.946,171.138c1.257,1.327,2.176,3.434,3.027,5.131c0.865,1.73,3.452,0.21,2.59-1.514
				c-0.979-1.95-1.982-4.142-3.496-5.738C297.735,167.609,295.618,169.734,296.946,171.138L296.946,171.138z"/>
		</g>
	</g>
	<g display="inline">
		<g>
			<path fill="#29ABE2" d="M258.478,147.61c6.083,1.13,11.228,4.011,15.643,8.31c1.386,1.35,3.509-0.77,2.121-2.121
				c-4.755-4.631-10.406-7.863-16.966-9.081C257.385,144.366,256.578,147.258,258.478,147.61L258.478,147.61z"/>
		</g>
	</g>
	<g display="inline">
		<g>
			<path fill="#29ABE2" d="M303.469,34.181c11.521,8.941,13.183,30.567,6.287,42.748c-0.741,1.311,0.737,2.805,2.052,2.052
				C329.153,69.049,325.448,35,306.015,29.5c-1.865-0.528-2.654,2.367-0.797,2.893c16.934,4.792,20.135,35.375,5.076,43.998
				c0.684,0.684,1.368,1.369,2.053,2.052c7.495-13.242,5.834-36.611-6.757-46.383C304.082,30.889,301.94,32.996,303.469,34.181
				L303.469,34.181z"/>
		</g>
	</g>
	<g display="inline">
		<g>
			<path fill="#29ABE2" d="M330.257,46.562c1.104,6.71,2.042,13.443,2.12,20.253c0.021,1.621,1.937,1.876,2.795,0.757
				c5.81-7.558,4.386-18.625-3.799-23.792c-1.642-1.036-3.146,1.561-1.515,2.591c6.937,4.379,7.486,13.484,2.724,19.687
				c0.933,0.252,1.862,0.505,2.795,0.757c-0.081-7.076-1.081-14.081-2.228-21.051C332.836,43.859,329.944,44.67,330.257,46.562
				L330.257,46.562z"/>
		</g>
	</g>
	<g display="inline">
		<g>
			<path fill="#29ABE2" d="M122.678-32.976c3.93-2.888,9.334-2.485,13.936-2.046c6.564,0.626,13.053,2.375,19.386,4.139
				c11.832,3.295,23.293,8.021,35.482,9.796c38.399,5.592,77.186,6.529,115.783,2.386c1.207-0.13,1.768-1.157,1.295-2.257
				c-0.658-1.537-3.718-1.637-5.117-1.77c-1.926-0.182-1.907,2.819,0,3c0.869,0.082,2.808,0.936,2.526,0.284
				c0.433-0.752,0.863-1.504,1.296-2.257c-19.912,2.137-39.964,3-59.985,2.53c-9.708-0.228-19.403-0.856-29.073-1.729
				c-10.683-0.964-21.997-1.621-32.438-4.11c-11.833-2.821-23.215-7.393-35.021-10.375c-8.43-2.128-21.756-5.934-29.585-0.182
				C119.622-34.434,121.116-31.828,122.678-32.976L122.678-32.976z"/>
		</g>
	</g>
	<g display="inline">
		<g>
			<path fill="#29ABE2" d="M85.294-16.671c8.727,6.19,15.77,14.385,24.44,20.656c8.937,6.464,19.715,9.178,30.634,7.435
				c12.344-1.971,23.597-7.684,35.654-10.737c13.45-3.406,26.362,0.468,39.104,4.824c9.455,3.232,18.727,6.58,28.845,6.608
				c9.979,0.029,19.623-3.456,28.496-7.74c8.362-4.037,16.535-8.474,24.722-12.855c3.392-1.815,6.776-3.637,10.176-5.438
				c1.535-0.813,3.443-2.262,5.174-2.603c1.896-0.373,1.092-3.264-0.797-2.893c-4.422,0.869-9.317,4.727-13.219,6.817
				c-7.979,4.274-15.95,8.558-24.032,12.632c-9.226,4.651-18.725,8.476-29.18,9.045c-10.677,0.582-20.787-3.528-30.693-6.914
				c-10.7-3.658-22.211-7.251-33.625-5.493c-11.846,1.826-22.687,7.16-34.172,10.332c-12.741,3.519-24.663,1.913-35.571-5.611
				c-8.798-6.068-15.713-14.466-24.441-20.657C85.226-20.384,83.73-17.781,85.294-16.671L85.294-16.671z"/>
		</g>
	</g>
</g>
<g id="Layer_2">
	<g>
		<g>
			<path fill="#BDCCD4" d="M339.411,167.345c21.831,1.326,40.024,9.656,56.288,23.918l1.198-7.708
				c0,12.445-3.146,24.891,3.143,35.264l0,0c3.144-5.187,10.479-14.521,11.526-17.632l-1.694,3.314
				c9.651,10.985,17.782,23.319,24.293,36.359c-0.674,14.503-6.753,29.917-7.429,45.326c-1.349,28.103,6.08,72.525,22.961,90.654
				c2.7-30.822,5.402-58.925,14.181-88.84c6.077-20.852,12.83-16.317,29.037-9.973c12.831,4.534,20.26,12.692,30.388,24.478
				c12.154-38.074-33.089-76.15-56.051-79.775c-0.948-10.686-2.923-21.201-4.984-31.385c-1.803-8.9-3.34-15.049-8.956-24
				l3.838,5.098c6.286,1.037,16.656,2.814,22.945,3.853c-4.193-14.521-21.209-27.294-34.831-28.332
				c-11.753-16.49-9.689-11.986-21.969-27.318c-19.868-24.804-44.062-50.035-76.382-57.496
				c26.626-16.703,58.509-24.87,82.765-45.343c-16.133-6.938-34.405-8.562-51.813-8.403c-31.317,0.288-64.387,6.145-93.003,19.062
				C201.216-5.589,100.559,15.914,25.875,71.291c-22.179,16.853-19.303,28.093,1.104,47.38
				c16.76,16.375,38.453,25.959,59.712,34.601c39.742,16.258,83.28,18.262,125.246,11.856c-0.449,8.995-2.706,1.343,4.138,59.532
				c16.727-8.693,28.685-16.679,37.197-29.62c4.831-7.344,4.677-12.804,1.552-30.056l-20.858,0.459
				c13.698-2.764,41.442,2.037,50.853,2.507l-10.096-38.987c10.846,28.058,11.227,64.311,26.18,91.759
				c11.174-10.745,46.583-56.37,44.393-73.62c-1.756-16.306-31.344-28.029-40.812-38.574"/>
			<g>
				<path fill="#29ABE2" d="M339.411,168.775c20.944,1.442,39.54,9.889,55.264,23.499c0.728,0.629,2.238,0.52,2.417-0.631
					c0.398-2.568,0.798-5.139,1.197-7.708c-0.945-0.126-1.894-0.253-2.838-0.38c-0.133,12.154-2.924,24.814,3.341,35.985
					c0.539,0.963,1.941,0.895,2.497,0c3.698-5.945,9.065-11.44,11.67-17.973c0.605-1.516-1.908-2.537-2.641-1.103
					c-0.565,1.104-1.13,2.209-1.697,3.316c-0.312,0.614-0.22,1.219,0.227,1.732c6.215,7.147,11.761,14.765,16.73,22.809
					c2.36,3.823,4.519,7.771,6.579,11.76c1.99,3.85-0.655,11.145-1.463,15.172c-1.725,8.603-3.921,17.075-4.994,25.798
					c-0.854,6.932-0.662,14.038-0.317,20.997c0.701,14.236,2.975,28.484,6.783,42.225c3.302,11.915,8.059,24.266,16.508,33.578
					c0.914,1.012,2.369,0.136,2.47-1.012c1.479-16.842,3.04-33.683,5.672-50.394c1.275-8.092,2.875-16.129,4.754-24.104
					c1.732-7.375,3.399-15.168,6.693-22.041c4.767-9.95,14.173-4.925,22.016-1.787c6.589,2.635,12.377,5.443,17.822,10.043
					c5.251,4.434,9.718,9.772,14.182,14.957c0.734,0.854,2.124,0.333,2.417-0.632c5.781-19.072-1.908-37.86-14.018-52.76
					c-10.365-12.753-26.251-25.885-43.041-28.774c0.354,0.458,0.706,0.918,1.062,1.378c-0.949-10.115-2.708-20.104-4.694-30.065
					c-1.866-9.364-4.417-17.83-9.445-26.042c-0.83,0.481-1.664,0.962-2.496,1.444c2.293,3.046,3.228,5.509,7.077,6.15
					c6.859,1.143,13.713,2.322,20.57,3.458c1.025,0.17,2.138-0.626,1.781-1.76c-4.348-13.812-17.153-24.728-31.063-28.531
					c-1.292-0.353-2.655-0.601-3.989-0.735c-1.207-0.121-2.972-3.637-3.641-4.552c-1.679-2.298-3.407-4.561-5.204-6.771
					c-3.314-4.076-6.916-7.919-10.261-11.974c-21.688-26.296-45.233-53.225-80.033-61.583c0.115,0.872,0.229,1.744,0.344,2.616
					c26.902-16.681,58.474-25.131,83.054-45.567c0.66-0.547,0.536-1.903-0.292-2.248c-25.371-10.595-54.504-9.876-81.375-6.751
					c-13.793,1.604-27.426,4.418-40.721,8.381c-6.52,1.944-12.914,4.278-19.197,6.873c-3.324,1.374-4.675,1.67-8.063,0.359
					c-3.266-1.262-6.572-2.409-9.896-3.509c-47.174-15.618-98.805-13.99-146.329-0.814c-24.437,6.774-47.916,16.872-69.872,29.425
					C44.037,56.774,33.382,63.682,23.442,71.37c-7.157,5.535-14.781,13.029-14.43,22.698c0.352,9.698,9.18,18.07,15.639,24.368
					c9.462,9.228,20.22,16.601,31.905,22.812c24.441,12.989,51.101,22.449,78.575,26.397c25.601,3.679,51.676,2.685,77.19-1.139
					c-0.61-0.459-1.221-0.919-1.831-1.379c-0.199,3.741-0.792,7.342-0.672,11.111c0.51,16.166,2.928,32.378,4.81,48.42
					c0.126,1.076,1.13,1.78,2.176,1.235c13.743-7.187,26.884-15.293,36.179-27.899c7.639-10.361,5.375-21.461,3.235-33.391
					c-0.109-0.609-0.798-1.064-1.395-1.051c-6.952,0.152-13.905,0.306-20.858,0.459c0.128,0.937,0.257,1.874,0.385,2.811
					c16.6-3.074,33.871,1.602,50.469,2.559c0.96,0.055,1.615-0.954,1.394-1.811c-3.365-12.996-6.73-25.992-10.096-38.986
					c-0.93,0.253-1.859,0.506-2.789,0.76c11.357,29.983,11.029,63.435,26.327,92.101c0.439,0.827,1.626,0.915,2.269,0.288
					c7.876-7.66,14.59-16.662,21.038-25.5c8.111-11.119,15.94-22.882,21.091-35.674c4.198-10.424,3.118-18.953-4.828-27.291
					c-9.819-10.299-24.07-15.389-33.723-25.753c-1.264-1.359-3.307,0.67-2.044,2.024c8.567,9.2,20.854,14.523,30.401,22.648
					c4.712,4.008,9.397,9.115,10.044,15.492c0.493,4.844-1.708,10.052-3.591,14.396c-5.049,11.666-12.411,22.435-19.852,32.71
					c-6.267,8.656-12.887,17.435-20.585,24.921c0.756,0.097,1.513,0.194,2.27,0.291c-15.162-28.416-14.77-61.683-26.034-91.417
					c-0.645-1.7-3.26-1.056-2.791,0.761c3.366,12.996,6.731,25.991,10.097,38.986c0.464-0.604,0.93-1.208,1.395-1.811
					c-16.91-0.974-34.321-5.587-51.237-2.455c-1.624,0.301-1.222,2.847,0.384,2.811c6.954-0.152,13.906-0.307,20.859-0.458
					c-0.465-0.351-0.929-0.701-1.394-1.052c1.11,6.195,2.382,12.496,2.133,18.818c-0.204,5.187-2.872,9.375-5.875,13.45
					c-8.607,11.671-21.682,19.171-34.344,25.79c0.725,0.413,1.451,0.823,2.176,1.237c-1.869-15.925-4.143-31.964-4.796-48.001
					c-0.16-3.916,0.452-7.646,0.659-11.529c0.054-1.018-0.958-1.511-1.831-1.38c-29.649,4.442-59.905,4.715-89.364-1.224
					c-14.595-2.943-28.5-7.824-42.192-13.549c-12.431-5.198-24.617-10.994-35.881-18.388c-11.032-7.245-22.584-17.018-29.428-28.396
					c-6.718-11.168,0.805-20.478,9.467-27.719c10.217-8.541,22.063-15.631,33.616-22.236c11.526-6.591,23.528-12.367,35.826-17.405
					C140.923,15.443,193.859,8.14,244.371,17.906c12.25,2.368,24.26,5.874,35.913,10.284c1.434,0.543,3.752,2.208,5.311,1.513
					c3.488-1.556,7.013-3.008,10.582-4.372c6.909-2.64,14.001-4.801,21.153-6.69c27.901-7.373,58.706-10.297,87.386-6.193
					c8.313,1.189,16.494,3.361,24.237,6.595c-0.1-0.75-0.196-1.499-0.296-2.248c-24.357,20.251-55.802,28.584-82.469,45.119
					c-1.024,0.635-0.913,2.314,0.346,2.617c32.892,7.901,56.513,33.214,76.819,58.468c3.333,4.145,6.833,8.136,10.33,12.144
					c3.755,4.303,6.546,9.861,10.56,13.834c1.319,1.305,5.936,1.282,7.862,1.887c3.777,1.185,7.265,3.183,10.539,5.353
					c7.32,4.849,13.427,12.093,16.059,20.46c0.594-0.587,1.186-1.172,1.778-1.761c-5.979-0.99-11.954-2.01-17.935-3.016
					c-1.871-0.315-3.993,0.024-4.975-1.28c-1.004-1.332-2.006-2.664-3.011-3.996c-1.084-1.441-3.486-0.173-2.496,1.445
					c4.573,7.471,7.068,15.151,8.811,23.658c2.104,10.26,3.954,20.574,4.933,31.005c0.059,0.593,0.396,1.265,1.064,1.378
					c15.352,2.645,29.222,14.063,39.314,25.188c12.954,14.277,21.533,33.659,15.726,52.827c0.806-0.212,1.61-0.42,2.416-0.632
					c-5.064-5.881-10.161-11.75-16.23-16.651c-5.155-4.163-10.941-6.657-17.051-9.084c-7.359-2.927-16.949-7.921-23.118-0.35
					c-3.925,4.816-5.333,11.677-6.931,17.475c-2.51,9.105-4.463,18.357-6.108,27.651c-3.297,18.622-4.985,37.487-6.637,56.308
					c0.823-0.338,1.646-0.675,2.47-1.013c-9.052-9.98-13.52-23.509-16.822-36.266c-3.701-14.298-5.54-29.133-5.846-43.878
					c-0.356-17.177,4.981-33.101,7.149-49.957c0.583-4.539,0.019-6.063-2.105-10.076c-2.101-3.974-4.408-7.837-6.809-11.639
					c-4.564-7.235-9.777-14.062-15.396-20.524c0.076,0.575,0.151,1.155,0.227,1.733c0.565-1.105,1.13-2.208,1.694-3.316
					c-0.881-0.366-1.761-0.735-2.642-1.101c-2.494,6.243-7.841,11.594-11.381,17.289c0.831,0,1.664,0,2.497,0
					c-5.949-10.611-3.071-23.011-2.946-34.542c0.018-1.576-2.59-2.005-2.84-0.38c-0.4,2.569-0.799,5.139-1.198,7.707
					c0.806-0.21,1.61-0.42,2.416-0.63c-16.331-14.136-35.56-22.841-57.308-24.339C337.549,165.784,337.562,168.648,339.411,168.775
					L339.411,168.775z"/>
			</g>
		</g>
	</g>
	<g>
		<g>
			<path fill="#F2F2F2" d="M57.889,140.321c-3.127-69.267,128.875-57.309,168.182-41.994c-7.862,22.928-44.894,22.547-64.312,27.894
				c-26.528,7.416-37.701,12.329-39.056,36.879"/>
			<g>
				<path fill="#808080" d="M59.334,140.321c-0.511-13.817,4.805-25.901,15.736-34.564c11.356-9,26.372-12.988,40.451-15.341
					c30.659-5.122,63.71-2.711,93.859,4.397c5.523,1.303,11.01,2.853,16.304,4.893c-0.336-0.587-0.673-1.173-1.01-1.76
					c-4.338,11.825-16.536,16.812-27.933,19.838c-11.347,3.014-23.13,3.944-34.501,6.824c-10.309,2.611-21.649,5.709-30.14,12.342
					c-8.061,6.297-10.238,16.525-10.845,26.15c-0.117,1.845,2.776,1.833,2.892,0c0.712-11.268,3.938-20.946,14.167-26.902
					c9.864-5.743,22.229-8.622,33.389-10.676c19.31-3.557,47.853-5.26,55.762-26.815c0.289-0.789-0.323-1.497-1.01-1.761
					c-11.459-4.415-23.745-6.789-35.859-8.626c-15.651-2.373-31.526-3.451-47.356-3.156c-26.185,0.489-61.191,4.235-78.335,26.687
					c-6.305,8.256-8.841,18.208-8.461,28.468C56.511,142.162,59.403,142.168,59.334,140.321L59.334,140.321z"/>
			</g>
		</g>
		<g>
			<path fill="#F2F2F2" d="M57.084,138.77c8.676,4.293,18.317,8.11,27.476,12.404c10.123,4.771,27.958,11.45,38.562,11.45"/>
			<g>
				<path fill="#808080" d="M56.355,140.005c11.348,5.546,23.033,10.715,34.7,15.572c10.009,4.166,21.085,8.255,32.067,8.479
					c1.867,0.038,1.863-2.826,0-2.863c-10.293-0.209-20.582-4.102-30.023-7.856c-11.909-4.737-23.78-10.18-35.286-15.803
					C56.148,136.72,54.682,139.188,56.355,140.005L56.355,140.005z"/>
			</g>
		</g>
	</g>
	<g>
		<g>
			<path fill="#808080" d="M67.282,132.904c18.761,1.373,37-0.379,54.69,7.303c1.151,0.5,2.956-0.666,1.979-1.958
				c-8.809-11.647-19.912-23.339-22.233-38.251c-0.593,0.586-1.186,1.173-1.778,1.76c19.296,3.697,32.629,19.997,51.721,24.445
				c0.96,0.223,2.223-0.687,1.779-1.761c-4.314-10.428-0.409-22.086-2.646-32.92c-0.708,0.539-1.417,1.078-2.124,1.617
				c4.602,2.635,7.944,6.575,11.446,10.446c4.381,4.843,9.207,8.994,14.82,12.383c0.832,0.501,1.835,0.001,2.124-0.855
				c2.898-8.621,0.931-17.549,1.1-26.421c-0.823,0.338-1.646,0.674-2.469,1.012c7.673,7.353,14.313,15.652,21.755,23.224
				c0.754,0.769,2.142,0.402,2.417-0.632c1.603-6.03,3.959-11.771,6.178-17.594c-0.805,0.21-1.61,0.42-2.417,0.631
				c2.687,2.929,5.171,6.046,7.654,9.144c1.159,1.447,3.191-0.594,2.045-2.023c-2.483-3.099-4.968-6.215-7.654-9.145
				c-0.792-0.863-2.059-0.31-2.417,0.632c-2.22,5.824-4.578,11.564-6.179,17.594c0.805-0.209,1.611-0.42,2.417-0.632
				c-7.441-7.572-14.08-15.872-21.753-23.223c-0.914-0.875-2.445-0.242-2.469,1.012c-0.163,8.597,1.812,17.305-0.996,25.661
				c0.708-0.286,1.416-0.571,2.124-0.855c-5.795-3.499-10.55-7.862-15.054-12.84c-3.404-3.763-6.752-7.434-11.212-9.989
				c-1.154-0.661-2.372,0.416-2.124,1.617c2.244,10.867-1.706,22.403,2.646,32.92c0.593-0.587,1.186-1.174,1.779-1.761
				C133.353,119,120.054,102.706,100.708,99c-1.158-0.221-1.951,0.652-1.778,1.761c2.364,15.183,13.558,27.077,22.524,38.935
				c0.66-0.653,1.319-1.305,1.979-1.958c-8.326-3.617-16.842-5.773-25.892-6.566c-10.053-0.88-20.188-0.392-30.258-1.13
				C65.42,129.905,65.434,132.768,67.282,132.904L67.282,132.904z"/>
		</g>
	</g>
	<g>
		<g>
			<path fill="#808080" d="M66.898,132.852c8.86,3.004,17.138,8.612,24.958,13.588c4.484,2.852,8.887,5.838,13.154,9.002
				c2.344,1.737,5.805,3.876,7.224,6.536c0.871,1.633,3.368,0.186,2.498-1.445c-1.377-2.582-4.297-4.513-6.548-6.262
				c-4.157-3.231-8.536-6.184-12.945-9.063c-8.583-5.604-17.768-11.792-27.57-15.115C65.898,129.493,65.144,132.258,66.898,132.852
				L66.898,132.852z"/>
		</g>
	</g>
	<g>
		<g>
			<path fill="#29ABE2" d="M245.499,43.408c4.865,5.013,10.916,10.969,13.008,17.688c2.549,8.18-3.617,17.772-6.149,25.289
				c0.592-0.333,1.186-0.666,1.778-0.999c-0.143-0.053-0.285-0.106-0.429-0.16c0.289,0.702,0.577,1.402,0.864,2.103
				c0.251-0.56,0.412-1.008,0.574-1.613c0.481-1.787-2.309-2.543-2.789-0.761c-0.094,0.31-0.189,0.62-0.283,0.93
				c-0.402,0.894-0.075,1.754,0.864,2.104c0.144,0.053,0.286,0.105,0.429,0.159c0.767,0.285,1.547-0.312,1.778-1
				c2.808-8.333,7.751-16.511,6.433-25.569c-1.114-7.649-8.864-14.865-14.035-20.194C246.25,40.05,244.208,42.077,245.499,43.408
				L245.499,43.408z"/>
		</g>
	</g>
	<g>
		<g>
			<path fill="#29ABE2" d="M261.7,47.926c4.836,3.341,11.729,8.29,10.701,14.687c-0.657,4.088-1.702,9.86-3.989,13.413
				c-1.005,1.561,1.498,2.997,2.498,1.444c2.898-4.501,4.221-11.774,4.646-16.996c0.497-6.12-7.997-11.98-12.395-15.02
				C261.625,44.394,260.182,46.877,261.7,47.926L261.7,47.926z"/>
		</g>
	</g>
	<g>
		<g>
			<path fill="#29ABE2" d="M276.349,49.133c2.412,2.397,5.223,4.853,6.498,8.075c1.272,3.221-0.079,6.997-1.084,10.093
				c-0.574,1.763,2.22,2.511,2.788,0.761c1.229-3.783,2.287-7.697,1.085-11.615c-1.146-3.722-4.572-6.686-7.242-9.339
				C277.077,45.8,275.032,47.823,276.349,49.133L276.349,49.133z"/>
		</g>
	</g>
	<g>
		<path fill="#FFFFFF" d="M139.029,38.42c5.142-3.817,12.854-5.089,19.924-5.089c0,3.181,0.643,6.997,0,10.179
			c-6.427-0.637-14.782-1.908-21.209-4.453c5.784,0.636,18.638,5.089,20.566,0c-6.427,0-13.497,1.271-19.924,0"/>
		<g>
			<path fill="#333333" d="M139.759,39.655c5.637-3.893,12.468-4.816,19.195-4.894c-0.482-0.477-0.964-0.954-1.446-1.431
				c0.079,3.271,0.524,6.537,0.052,9.798c0.465-0.35,0.93-0.7,1.394-1.051c-7.079-0.732-14.148-1.885-20.825-4.401
				c-0.128,0.937-0.257,1.874-0.384,2.811c5.343,0.69,18.438,6.053,21.815-0.709c0.471-0.942-0.091-2.17-1.249-2.154
				c-6.52,0.091-13.053,1.137-19.54,0.052c-1.824-0.306-2.604,2.452-0.769,2.76c6.772,1.135,13.5,0.146,20.308,0.052
				c-0.417-0.718-0.832-1.436-1.248-2.154c-2.304,4.611-15.315-0.193-19.318-0.709c-1.733-0.223-1.788,2.283-0.385,2.811
				c6.918,2.607,14.261,3.746,21.594,4.504c0.574,0.059,1.311-0.477,1.395-1.051c0.511-3.538,0.137-7.003,0.052-10.558
				c-0.02-0.773-0.643-1.44-1.446-1.431c-7.196,0.082-14.625,1.122-20.653,5.285C136.782,38.232,138.226,40.714,139.759,39.655
				L139.759,39.655z"/>
		</g>
	</g>
	<g>
		<g>
			<path fill="#4D4D4D" d="M58.907,44.276c1.545-25.613,6.648-33.849,37.86-33.703c20.808,0.097,66.429-3.889,78.773,3.589"/>
			<g>
				<path fill="#333333" d="M60.354,44.276c0.583-9.204,1.048-21.063,9.281-27.092c8.938-6.545,22.4-5.044,32.818-5.23
					c13.155-0.237,26.295-0.948,39.456-0.921c10.189,0.02,23.732-0.877,32.903,4.367c1.617,0.925,3.073-1.55,1.459-2.472
					c-9.672-5.531-23.638-4.696-34.362-4.757c-14.458-0.083-28.896,0.865-43.351,0.972c-10.77,0.08-23.689-0.351-32.354,7.13
					c-7.66,6.615-8.158,18.763-8.742,28.005C57.344,46.12,60.237,46.109,60.354,44.276L60.354,44.276z"/>
			</g>
		</g>
		<g>
			<path fill="#4D4D4D" d="M101.23,29.914c4.073,8.839,15.647,40.392,32.643,38.652c12.858-1.06,29.587-32.341,35.917-41.131
				c15.124,3.851,30.829,12.184,43.625,20.643c-2.325,4.609-3.745,11.182-5.618,16.774c33.462-40.023-18.036-26.264-32.258-50.69"/>
			<g>
				<path fill="#333333" d="M99.981,30.637c3.826,8.401,7.3,16.882,12.362,24.667c4.628,7.116,11.393,14.771,20.641,14.754
					c8.73-0.014,15.691-9.496,20.404-15.569c6.505-8.38,11.533-17.704,17.653-26.332c-0.545,0.219-1.088,0.438-1.633,0.658
					c15.567,4.122,29.905,11.735,43.28,20.5c-0.174-0.653-0.347-1.307-0.52-1.958c-2.574,5.477-3.908,11.384-5.763,17.116
					c-0.425,1.313,1.488,2.517,2.417,1.392c7.433-8.995,18.557-23.862,4.354-32.017c-12.178-6.993-28.433-7.292-36.386-20.409
					c-0.958-1.58-3.459-0.143-2.498,1.446c6.674,11.007,19.556,14.404,30.958,18.587c4.369,1.603,10.312,3.712,11.903,8.552
					c2.419,7.366-6.254,16.826-10.376,21.816c0.805,0.463,1.611,0.928,2.417,1.392c1.775-5.484,3.009-11.192,5.472-16.432
					c0.347-0.739,0.186-1.497-0.52-1.958c-13.574-8.895-28.173-16.605-43.97-20.787c-0.667-0.177-1.254,0.123-1.633,0.657
					c-4.961,6.996-9.192,14.482-14.114,21.513c-4.537,6.479-11.759,17.825-20.556,18.909c-9.551,1.178-16.54-9.111-20.778-16.046
					c-4.253-6.959-7.251-14.509-10.617-21.898C101.714,27.511,99.222,28.968,99.981,30.637L99.981,30.637z"/>
			</g>
		</g>
		<g>
			<path fill="#4D4D4D" d="M58.907,44.276c9.063,22.437,38.513-6.01,42.324-14.362"/>
			<g>
				<path fill="#333333" d="M57.658,44.998c9.41,21.744,38.417-1.168,44.821-14.361c0.803-1.656-1.69-3.109-2.498-1.446
					c-5.515,11.362-31.546,33.496-39.825,14.361C59.423,41.86,56.933,43.321,57.658,44.998L57.658,44.998z"/>
			</g>
		</g>
	</g>
	<path fill="#F2F2F2" stroke="#F2F2F2" stroke-width="0.9591" stroke-miterlimit="10" d="M144.814,16.155
		c2.892,0,7.712,0.954,11.568,0.954c-0.964,5.725-3.856,11.451-6.748,17.176c2.892-7.634,0.964-16.222-8.676-17.176L144.814,16.155z
		"/>
	<path fill="#F2F2F2" stroke="#F2F2F2" stroke-width="0.6538" stroke-miterlimit="10" d="M86.356,17.586
		c2.432,0,6.485,0.528,9.728,0.528c-0.811,3.164-3.243,6.327-5.675,9.491c2.432-4.218,0.812-8.964-7.294-9.491L86.356,17.586z"/>
</g>
</svg>
