<?xml version="1.0" encoding="utf-8"?>
<!-- Generator: Adobe Illustrator 16.0.0, SVG Export Plug-In . SVG Version: 6.00 Build 0)  -->
<!DOCTYPE svg PUBLIC "-//W3C//DTD SVG 1.1//EN" "http://www.w3.org/Graphics/SVG/1.1/DTD/svg11.dtd">
<svg version="1.1" id="Layer_1" xmlns="http://www.w3.org/2000/svg" xmlns:xlink="http://www.w3.org/1999/xlink" x="0px" y="0px"
	 width="536.959px" height="388.297px" viewBox="0 0 536.959 388.297" enable-background="new 0 0 536.959 388.297"
	 xml:space="preserve">
<g id="Layer_1_1_" display="none">
	<g display="inline">
		<g>
			<path fill="#29ABE2" d="M277.024-37.74c-41.609-25.59-95.39-19.87-140.149-6.65c-23.821,7.036-47.486,16.98-68.424,30.402
				c-5.835,3.741-11.4,7.888-16.79,12.241c-4.12,3.327-8.465,6.843-11.428,11.292c-4.664,7.002,1.687,15.279,5.392,21.072
				c21.478,33.585,45.532,64.825,80.839,84.729c32.686,18.426,71.172,26.529,108.5,25.796c1.932-0.038,1.937-3,0-3
				c-1.449,0-2.898,0-4.348,0c-1.935,0-1.935,3,0,3c1.449,0,2.898,0,4.348,0c0-1,0-2,0-3
				c-55.079,1.08-110.282-17.672-148.748-57.994c-10.307-10.804-19.22-22.88-27.618-35.197c-3.868-5.673-7.572-11.454-11.271-17.237
				c-2.503-3.915-6.542-9.13-5.617-14.086c0.837-4.49,6.133-8.191,9.335-10.961C57.451-2.879,64.374-7.813,71.5-12.382
				c11.394-7.303,23.748-13.169,36.205-18.419c26.82-11.301,55.575-18.848,84.624-21.081c28.539-2.194,58.432,1.51,83.182,16.732
				C277.164-34.133,278.669-36.729,277.024-37.74L277.024-37.74z"/>
		</g>
	</g>
	<g display="inline">
		<g>
			<path fill="#29ABE2" d="M63.225,58.533c38.48,0.859,77.109-0.353,115.341,4.941c36.347,5.034,72.98,19.948,110.058,13.483
				c-0.486-0.835-0.973-1.671-1.459-2.507c-20.198,21.771-45.541,38.634-75.67,41.694c-32.539,3.304-62.671-13.987-95.008-11.699
				c-1.918,0.136-1.932,3.137,0,3c17.521-1.24,34.527,3.653,51.425,7.573c15.889,3.686,31.854,5.753,48.124,3.594
				c29.004-3.847,53.752-21.024,73.25-42.041c1.076-1.16-0.008-2.76-1.459-2.507c-37.128,6.473-74.31-8.954-110.772-13.802
				c-37.753-5.02-75.85-3.882-113.829-4.729C61.289,55.49,61.293,58.49,63.225,58.533L63.225,58.533z"/>
		</g>
	</g>
	<g display="inline">
		<g>
			<path fill="#29ABE2" d="M110.323,106.345c3.125-15.877,0.114-31.765-2.174-47.537c-0.835,0.487-1.671,0.973-2.507,1.459
				c10.718,13.337,13.172,31.2,23.913,44.565c0.863,1.074,2.542,0.136,2.561-1.061c0.217-14.235,5.37-27.5,12.839-39.46
				c-0.914-0.12-1.828-0.239-2.742-0.358c4.305,16.401,7.172,33.182,17.542,47.097c0.702,0.942,2.447,1.047,2.742-0.358
				c3.394-16.187,10.698-30.958,20.501-44.207c-0.864,0-1.727,0-2.591,0c7.467,17.326,12.126,35.807,21.739,52.174
				c0.699,1.189,2.309,0.821,2.742-0.358c4.927-13.43,10.719-26.627,18.327-38.772c-0.914-0.119-1.828-0.239-2.742-0.358
				c4.292,11.138,5.933,23.165,13.194,32.967c0.755,1.018,2.337,0.975,2.742-0.358c3.42-11.27,7.535-22.328,13.979-32.251
				c-0.864,0-1.727,0-2.591,0c3.23,5.635,5.466,11.756,8.696,17.392c0.523,0.912,1.616,0.889,2.356,0.303
				c2.297-1.818,0.814-3.38,0.386-5.807c-0.335-1.903-3.227-1.094-2.893,0.798c0.051,0.289,0.682,2.653,0.386,2.888
				c0.785,0.101,1.57,0.202,2.356,0.303c-3.23-5.635-5.466-11.756-8.696-17.391c-0.582-1.015-1.99-0.926-2.591,0
				c-6.58,10.131-10.79,21.46-14.281,32.967c0.914-0.119,1.828-0.239,2.742-0.358c-7.102-9.586-8.696-21.359-12.893-32.25
				c-0.459-1.192-2.008-1.529-2.742-0.358c-7.743,12.36-13.615,25.821-18.629,39.488c0.914-0.119,1.828-0.239,2.742-0.358
				c-9.605-16.352-14.276-34.857-21.739-52.174c-0.496-1.149-2.008-0.787-2.591,0c-9.946,13.442-17.362,28.505-20.803,44.923
				c0.914-0.119,1.828-0.239,2.742-0.358c-10.216-13.708-13.001-30.232-17.24-46.381c-0.338-1.29-2.068-1.437-2.742-0.358
				c-7.742,12.398-13.023,26.229-13.248,40.975c0.854-0.354,1.707-0.707,2.561-1.061c-10.718-13.337-13.172-31.2-23.913-44.565
				c-1.062-1.322-2.693,0.174-2.507,1.459c2.206,15.209,5.188,30.629,2.174,45.941C107.059,107.437,109.95,108.242,110.323,106.345
				L110.323,106.345z"/>
		</g>
	</g>
	<g display="inline">
		<g>
			<path fill="#29ABE2" d="M80.408,63.226c6.351,11.015,14.08,22.401,18.327,34.424c0.64,1.811,3.539,1.031,2.893-0.798
				c-4.341-12.288-12.14-23.885-18.629-35.141C82.033,60.036,79.44,61.546,80.408,63.226L80.408,63.226z"/>
		</g>
	</g>
	<g display="inline">
		<g>
			<path fill="#29ABE2" d="M273.034-40.819c15.979,17.021,35.647,29.813,54.268,43.677c10.106,7.525,19.868,15.515,28.645,24.576
				c4.562,4.71,8.722,9.788,12.506,15.14c1.396,1.976,9.066,0.585,11.357,0.635c23.343,0.51,46.654,6.061,68.764,13.25
				c22.016,7.16,43.877,16.658,62.809,30.13c0.119-0.914,0.238-1.828,0.358-2.742c-30.996,7.862-63.493,7.554-95.254,7.555
				c-1.377,0-1.896,1.602-1.062,2.561c12.998,14.952,24.062,31.303,32.275,49.361c8.074,17.749,12.856,36.815,16.087,55.984
				c2.947,17.493-0.769,37.489,6.361,54.11c3.937,9.177,10.455,15.957,16.021,24.129c6.444,9.464,10.019,22.08,12.565,33.145
				c0.914-0.385,1.826-0.771,2.74-1.154c-7.716-10.797-21.846-13.52-33.146-19.018c-1.173-0.57-2.531,0.354-2.203,1.693
				c4.021,16.443,5.104,33.978,5.854,50.826c0.441,9.918,0.488,19.9-0.472,29.789c-0.577,5.941-1.271,14.736-6.083,19.014
				c-1.449,1.287,0.682,3.4,2.121,2.121c4.553-4.045,5.635-11.315,6.46-16.989c1.459-10.037,1.412-20.295,1.106-30.409
				c-0.553-18.229-1.742-37.363-6.095-55.148c-0.733,0.564-1.469,1.129-2.202,1.693c10.677,5.195,24.795,7.762,32.07,17.939
				c0.976,1.365,3.139,0.566,2.741-1.154c-2.377-10.324-6.013-20.382-10.566-29.947c-4.609-9.685-13.929-16.385-17.694-26.574
				c-6.641-17.965-3.81-37.781-6.955-56.457c-3.192-18.952-8.293-37.531-16.12-55.106c-8.153-18.31-19.631-34.881-32.745-49.967
				c-0.354,0.854-0.707,1.707-1.061,2.561c32.027-0.001,64.793,0.267,96.051-7.663c1.354-0.343,1.359-2.028,0.357-2.742
				c-17.924-12.755-38.412-21.762-59.117-28.951c-22.094-7.671-45.301-13.121-68.682-14.61c-2.62-0.167-5.244-0.24-7.869-0.274
				c-1.378-0.018-6.227,0.836-7.086-0.378c-3.335-4.718-7.092-9.134-11.021-13.364c-8.058-8.673-17.263-16.211-26.645-23.394
				c-19.456-14.897-40.442-27.991-57.32-45.968C273.828-44.354,271.711-42.228,273.034-40.819L273.034-40.819z"/>
		</g>
	</g>
	<g display="inline">
		<g>
			<path fill="#29ABE2" d="M311.778,127.287c-9.478,32.827-16.278,66.289-21.739,100c-0.163,1.006,0.401,1.819,1.446,1.897
				c23.389,1.751,45.374-16.509,60.943-31.912c8.535-8.443,15.708-17.357,15.397-29.936c-0.303-12.229-7.463-23.551-11.853-34.616
				c-0.704-1.776-3.605-1.003-2.893,0.797c3.809,9.604,8.968,18.765,11.142,28.94c2.914,13.645-4.828,23.562-13.916,32.692
				c-14.854,14.925-36.372,32.716-58.823,31.034c0.482,0.633,0.965,1.266,1.447,1.898c5.461-33.71,12.262-67.172,21.738-100
				C315.209,126.222,312.312,125.432,311.778,127.287L311.778,127.287z"/>
		</g>
	</g>
	<g display="inline">
		<g>
			<path fill="#29ABE2" d="M230.257,139.243c-8.587,31.281-15.237,63.037-22.826,94.565c-0.204,0.845,0.436,2.034,1.446,1.897
				c11.513-1.543,22.033-6.455,31.916-12.377c10.233-6.133,20.729-13.636,28.795-22.482c12.716-13.947,5.054-31.46,4.919-48.161
				c-0.752,0.432-1.505,0.863-2.257,1.295c3.354,1.913,27.531,14.737,23.608,19.384c-1.238,1.468,0.871,3.602,2.121,2.121
				c7.336-8.689-19.084-21.17-24.215-24.095c-0.979-0.559-2.268,0.146-2.258,1.295c0.123,15.182,7.371,31.988-3.209,45.073
				c-6.927,8.566-17.009,15.268-26.164,21.197c-10.045,6.508-21.277,12.145-33.257,13.75c0.482,0.633,0.964,1.267,1.446,1.898
				c7.589-31.527,14.24-63.284,22.826-94.565C233.663,138.172,230.768,137.38,230.257,139.243L230.257,139.243z"/>
		</g>
	</g>
	<g display="inline">
		<g>
			<path fill="#29ABE2" d="M352.382,196.138c8.105,6.733,13.697,15.894,18.862,24.946c5.455,9.562,10.724,19.215,13.396,29.973
				c5.586,22.477-5.715,43.273-17.276,61.74c-0.827,1.32,0.773,2.748,2.052,2.053c14.964-8.15,28.912-18.139,44.565-25
				c-0.753-0.432-1.506-0.863-2.258-1.295c-1.555,19.031-4.116,37.966-9.104,56.427c-4.151,15.374-9.256,30.55-21.51,41.278
				c-19.832,17.363-47.737,24.125-62.66,47.189c-0.725,1.119,0.464,2.557,1.692,2.203c32.963-9.465,68.308-23.496,103.193-18.705
				c15.925,2.188,30.158,11.686,42.495,21.445c12.606,9.975,24,21.574,34.375,33.83c0.733,0.867,2.249,0.375,2.507-0.66
				c3.849-15.43-2.223-30.947-9.544-44.365c-8.002-14.666-18.653-27.664-28.886-40.791c-1.188-1.523-3.295,0.615-2.121,2.121
				c9.209,11.814,18.542,23.514,26.247,36.396c8.042,13.445,15.386,29.908,11.411,45.842c0.836-0.221,1.671-0.441,2.507-0.662
				c-10.736-12.686-22.562-24.484-35.603-34.803c-12.456-9.854-26.656-18.748-42.592-21.246c-16.995-2.662-34.625,0.16-51.255,3.801
				c-18.109,3.965-35.733,9.795-53.533,14.904c0.564,0.734,1.129,1.471,1.693,2.203c15.276-23.609,44.998-30.322,64.788-48.938
				c11.12-10.46,15.693-25.965,19.686-40.246c5.207-18.633,7.639-37.984,9.21-57.225c0.104-1.256-1.321-1.705-2.257-1.295
				c-15.653,6.859-29.603,16.849-44.564,25c0.684,0.684,1.367,1.367,2.052,2.052c11.955-19.094,22.465-39.419,17.916-62.547
				c-2.188-11.115-7.836-21.062-13.275-30.845c-5.406-9.723-11.437-19.713-20.092-26.903
				C353.026,192.79,350.893,194.9,352.382,196.138L352.382,196.138z"/>
		</g>
	</g>
	<g display="inline">
		<g>
			<path fill="#29ABE2" d="M296.946,171.138c1.257,1.327,2.176,3.434,3.027,5.131c0.866,1.73,3.453,0.21,2.59-1.514
				c-0.979-1.95-1.982-4.142-3.496-5.738C297.735,167.609,295.618,169.734,296.946,171.138L296.946,171.138z"/>
		</g>
	</g>
	<g display="inline">
		<g>
			<path fill="#29ABE2" d="M258.478,147.61c6.083,1.13,11.228,4.011,15.643,8.31c1.386,1.35,3.509-0.77,2.121-2.121
				c-4.755-4.631-10.406-7.863-16.966-9.081C257.385,144.366,256.578,147.258,258.478,147.61L258.478,147.61z"/>
		</g>
	</g>
	<g display="inline">
		<g>
			<path fill="#29ABE2" d="M303.469,34.181c11.521,8.941,13.183,30.567,6.287,42.748c-0.742,1.311,0.737,2.805,2.052,2.052
				C329.154,69.049,325.448,35,306.015,29.5c-1.865-0.528-2.654,2.367-0.797,2.893c16.933,4.792,20.135,35.375,5.076,43.998
				c0.684,0.684,1.368,1.369,2.052,2.052c7.496-13.242,5.835-36.611-6.756-46.383C304.082,30.889,301.94,32.996,303.469,34.181
				L303.469,34.181z"/>
		</g>
	</g>
	<g display="inline">
		<g>
			<path fill="#29ABE2" d="M330.257,46.562c1.104,6.71,2.042,13.443,2.12,20.253c0.02,1.621,1.936,1.876,2.795,0.757
				c5.809-7.558,4.385-18.625-3.799-23.792c-1.641-1.036-3.146,1.561-1.514,2.591c6.936,4.379,7.486,13.484,2.723,19.687
				c0.932,0.252,1.863,0.505,2.795,0.757c-0.081-7.076-1.081-14.081-2.228-21.051C332.836,43.859,329.945,44.67,330.257,46.562
				L330.257,46.562z"/>
		</g>
	</g>
	<g display="inline">
		<g>
			<path fill="#29ABE2" d="M122.678-32.976c3.93-2.888,9.334-2.485,13.936-2.046c6.564,0.626,13.053,2.375,19.386,4.139
				c11.832,3.295,23.293,8.021,35.482,9.796c38.399,5.592,77.186,6.529,115.782,2.386c1.208-0.13,1.768-1.157,1.296-2.257
				c-0.658-1.537-3.718-1.637-5.117-1.77c-1.926-0.182-1.908,2.819,0,3c0.869,0.082,2.807,0.936,2.526,0.284
				c0.433-0.752,0.863-1.504,1.295-2.257c-19.911,2.137-39.963,3-59.984,2.53c-9.708-0.228-19.403-0.856-29.073-1.729
				c-10.683-0.964-21.997-1.621-32.438-4.11c-11.833-2.821-23.215-7.393-35.021-10.375c-8.43-2.128-21.756-5.934-29.585-0.182
				C119.622-34.434,121.116-31.828,122.678-32.976L122.678-32.976z"/>
		</g>
	</g>
	<g display="inline">
		<g>
			<path fill="#29ABE2" d="M85.294-16.671c8.727,6.19,15.77,14.385,24.44,20.656c8.937,6.464,19.715,9.178,30.634,7.435
				c12.344-1.971,23.597-7.684,35.654-10.737c13.45-3.406,26.362,0.468,39.104,4.824c9.455,3.232,18.727,6.58,28.845,6.608
				c9.979,0.029,19.623-3.456,28.496-7.74c8.362-4.037,16.535-8.474,24.722-12.855c3.391-1.815,6.776-3.637,10.175-5.438
				c1.535-0.813,3.443-2.262,5.174-2.603c1.896-0.373,1.092-3.264-0.797-2.893c-4.421,0.869-9.317,4.727-13.218,6.817
				c-7.979,4.274-15.951,8.558-24.033,12.632c-9.226,4.651-18.725,8.476-29.18,9.045c-10.677,0.582-20.787-3.528-30.693-6.914
				c-10.7-3.658-22.211-7.251-33.625-5.493c-11.846,1.826-22.687,7.16-34.172,10.332c-12.741,3.519-24.663,1.913-35.571-5.611
				c-8.798-6.068-15.713-14.466-24.441-20.657C85.226-20.384,83.73-17.781,85.294-16.671L85.294-16.671z"/>
		</g>
	</g>
</g>
<g id="Layer_2">
	<g>
		<g>
			<path fill="#BDCCD4" d="M342.729,167.219c22.644,1.39,41.516,10.119,58.386,25.066l1.242-8.078
				c0,13.043-3.262,26.086,3.261,36.956l0,0c3.261-5.435,10.869-15.217,11.956-18.478l-1.758,3.474
				c10.012,11.512,18.446,24.438,25.199,38.104c-0.699,15.2-7.005,31.353-7.705,47.503c-1.4,29.451,6.306,76.005,23.816,95.006
				c2.802-32.303,5.604-61.754,14.71-93.105c6.304-21.852,13.309-17.101,30.119-10.451c13.31,4.752,21.016,13.302,31.521,25.652
				c12.608-39.902-34.322-79.806-58.14-83.605c-0.983-11.198-3.032-22.219-5.171-32.891c-1.869-9.327-3.464-15.772-9.29-25.152
				l3.981,5.343c6.521,1.087,17.278,2.949,23.801,4.037c-4.349-15.218-22-28.604-36.13-29.691
				c-12.19-17.282-10.05-12.562-22.787-28.629c-20.608-25.995-45.705-52.437-79.229-60.256
				c27.618-17.505,60.689-26.064,85.849-47.52c-16.734-7.271-35.687-8.973-53.745-8.806c-32.484,0.302-66.786,6.44-96.469,19.977
				C199.382-14.016,94.972,8.52,17.504,66.554c-23.006,17.662-20.022,29.442,1.145,49.655c17.384,17.16,39.886,27.205,61.938,36.261
				c41.223,17.039,86.384,19.139,129.915,12.425c-0.466,9.427-2.807,1.408,4.292,62.389c17.35-9.109,29.754-17.48,38.584-31.041
				c5.011-7.696,4.851-13.419,1.61-31.499l-21.636,0.481c14.209-2.897,42.987,2.135,52.749,2.627l-10.472-40.858
				c11.25,29.404,11.646,67.397,27.156,96.163c11.59-11.26,48.32-59.075,46.047-77.153c-1.821-17.089-32.512-29.374-42.333-40.426"
				/>
			<g>
				<path fill="#29ABE2" d="M342.729,168.719c21.725,1.511,41.014,10.363,57.324,24.627c0.754,0.659,2.321,0.544,2.507-0.662
					c0.414-2.692,0.828-5.385,1.242-8.078c-0.981-0.133-1.964-0.266-2.945-0.398c-0.137,12.737-3.032,26.005,3.466,37.712
					c0.56,1.01,2.014,0.938,2.59,0c3.836-6.231,9.403-11.99,12.106-18.836c0.628-1.588-1.98-2.658-2.74-1.154
					c-0.586,1.156-1.172,2.314-1.759,3.474c-0.324,0.644-0.229,1.277,0.234,1.817c6.446,7.49,12.199,15.472,17.354,23.902
					c2.449,4.008,4.688,8.144,6.825,12.324c2.064,4.035-0.68,11.68-1.518,15.9c-1.789,9.016-4.067,17.896-5.18,27.037
					c-0.885,7.265-0.687,14.712-0.33,22.006c0.728,14.919,3.086,29.85,7.036,44.251c3.425,12.487,8.36,25.429,17.124,35.19
					c0.948,1.06,2.456,0.141,2.561-1.061c1.534-17.65,3.154-35.3,5.885-52.812c1.322-8.48,2.981-16.903,4.929-25.262
					c1.798-7.728,3.528-15.895,6.944-23.098c4.944-10.428,14.701-5.16,22.837-1.873c6.834,2.762,12.838,5.705,18.486,10.525
					c5.446,4.646,10.08,10.242,14.71,15.676c0.762,0.895,2.204,0.347,2.507-0.662c5.997-19.989-1.979-39.678-14.54-55.293
					c-10.751-13.366-27.23-27.127-44.646-30.157c0.367,0.481,0.733,0.964,1.102,1.446c-0.985-10.602-2.81-21.069-4.869-31.509
					c-1.937-9.814-4.582-18.686-9.797-27.292c-0.862,0.505-1.727,1.009-2.59,1.514c2.379,3.192,3.348,5.773,7.342,6.445
					c7.114,1.197,14.223,2.434,21.337,3.624c1.062,0.178,2.216-0.657,1.846-1.845c-4.51-14.475-17.793-25.915-32.221-29.9
					c-1.34-0.37-2.754-0.63-4.137-0.77c-1.253-0.126-3.083-3.812-3.777-4.771c-1.742-2.408-3.535-4.78-5.398-7.096
					c-3.438-4.271-7.174-8.299-10.644-12.548c-22.497-27.559-46.919-55.78-83.017-64.54c0.12,0.914,0.239,1.828,0.358,2.742
					c27.904-17.482,60.653-26.337,86.15-47.754c0.684-0.573,0.555-1.994-0.304-2.356C410.802-1.9,380.584-1.146,352.711,2.129
					c-14.307,1.681-28.448,4.63-42.239,8.783c-6.763,2.037-13.396,4.484-19.912,7.203c-3.449,1.439-4.85,1.75-8.365,0.376
					c-3.387-1.322-6.817-2.524-10.264-3.677C222.998-1.554,169.442,0.153,120.146,13.96c-25.347,7.1-49.702,17.682-72.476,30.838
					C36.344,51.341,25.291,58.58,14.98,66.637C7.556,72.438-0.352,80.292,0.012,90.425c0.365,10.164,9.522,18.937,16.222,25.538
					c9.815,9.671,20.973,17.398,33.094,23.907c25.352,13.612,53.006,23.526,81.504,27.664c26.555,3.855,53.602,2.813,80.068-1.193
					c-0.633-0.482-1.266-0.964-1.899-1.446c-0.206,3.921-0.822,7.695-0.698,11.645c0.529,16.941,3.038,33.933,4.99,50.744
					c0.131,1.129,1.172,1.867,2.257,1.295c14.255-7.531,27.886-16.027,37.527-29.238c7.924-10.859,5.576-22.492,3.356-34.994
					c-0.113-0.639-0.828-1.115-1.446-1.102c-7.212,0.16-14.424,0.321-21.636,0.481c0.133,0.982,0.266,1.964,0.399,2.946
					c17.219-3.222,35.134,1.678,52.351,2.681c0.996,0.058,1.676-0.999,1.445-1.898c-3.49-13.62-6.98-27.239-10.472-40.858
					c-0.964,0.266-1.929,0.531-2.894,0.797c11.783,31.423,11.442,66.479,27.309,96.521c0.457,0.867,1.688,0.959,2.354,0.303
					c8.17-8.028,15.134-17.463,21.822-26.725c8.414-11.653,16.535-23.98,21.878-37.386c4.354-10.925,3.233-19.863-5.009-28.601
					c-10.185-10.794-24.967-16.128-34.979-26.989c-1.312-1.425-3.43,0.702-2.12,2.121c8.887,9.642,21.631,15.221,31.534,23.735
					c4.888,4.2,9.748,9.553,10.419,16.236c0.511,5.076-1.772,10.534-3.725,15.088c-5.237,12.225-12.874,23.511-20.591,34.28
					c-6.501,9.072-13.368,18.271-21.353,26.117c0.784,0.102,1.569,0.203,2.354,0.305c-15.728-29.78-15.32-64.644-27.005-95.805
					c-0.668-1.782-3.381-1.107-2.894,0.797c3.491,13.62,6.981,27.239,10.472,40.858c0.482-0.633,0.965-1.266,1.447-1.898
					c-17.54-1.021-35.601-5.856-53.147-2.573c-1.684,0.315-1.267,2.983,0.399,2.946c7.212-0.16,14.424-0.321,21.636-0.481
					c-0.482-0.367-0.964-0.734-1.446-1.102c1.152,6.493,2.472,13.096,2.213,19.722c-0.212,5.436-2.979,9.825-6.094,14.095
					c-8.928,12.231-22.49,20.092-35.624,27.029c0.752,0.432,1.504,0.863,2.257,1.295c-1.939-16.689-4.297-33.498-4.975-50.305
					c-0.166-4.104,0.469-8.012,0.683-12.083c0.056-1.066-0.994-1.583-1.899-1.446c-30.755,4.655-62.138,4.941-92.696-1.283
					c-15.139-3.084-29.563-8.199-43.765-14.199c-12.894-5.448-25.535-11.521-37.219-19.271
					C24.973,121.102,12.99,110.86,5.891,98.936c-6.968-11.704,0.835-21.461,9.82-29.05c10.598-8.951,22.886-16.381,34.869-23.303
					c11.956-6.907,24.405-12.961,37.161-18.24c49.1-20.316,104.01-27.971,156.405-17.736c12.706,2.482,25.164,6.156,37.251,10.778
					c1.488,0.569,3.892,2.313,5.509,1.585c3.618-1.63,7.274-3.152,10.977-4.582c7.167-2.767,14.522-5.031,21.942-7.011
					c28.941-7.726,60.894-10.791,90.643-6.49c8.624,1.247,17.109,3.522,25.14,6.912c-0.103-0.786-0.203-1.571-0.305-2.356
					c-25.267,21.223-57.883,29.956-85.544,47.285c-1.062,0.665-0.948,2.425,0.358,2.742c34.119,8.281,58.62,34.809,79.684,61.275
					c3.457,4.344,7.088,8.526,10.715,12.726c3.895,4.51,6.79,10.335,10.954,14.498c1.368,1.368,6.156,1.344,8.154,1.978
					c3.919,1.241,7.536,3.335,10.933,5.609c7.592,5.082,13.927,12.674,16.657,21.443c0.615-0.615,1.23-1.229,1.845-1.845
					c-6.203-1.038-12.401-2.107-18.604-3.161c-1.941-0.33-4.142,0.026-5.16-1.341c-1.041-1.396-2.081-2.792-3.122-4.188
					c-1.125-1.511-3.617-0.182-2.59,1.514c4.744,7.83,7.331,15.879,9.139,24.794c2.182,10.754,4.101,21.562,5.117,32.493
					c0.059,0.621,0.41,1.326,1.103,1.445c15.924,2.771,30.312,14.738,40.781,26.398c13.437,14.963,22.336,35.273,16.311,55.362
					c0.836-0.222,1.671-0.441,2.507-0.662c-5.253-6.164-10.541-12.315-16.836-17.45c-5.348-4.363-11.349-6.977-17.685-9.521
					c-7.635-3.068-17.582-8.301-23.981-0.367c-4.071,5.047-5.532,12.238-7.189,18.314c-2.604,9.543-4.629,19.238-6.336,28.979
					c-3.42,19.516-5.171,39.286-6.885,59.01c0.854-0.354,1.707-0.707,2.562-1.062c-9.389-10.459-14.024-24.637-17.449-38.006
					c-3.84-14.984-5.747-30.531-6.064-45.984c-0.369-18.001,5.168-34.689,7.416-52.355c0.605-4.756,0.019-6.354-2.184-10.56
					c-2.18-4.164-4.572-8.212-7.062-12.197c-4.735-7.582-10.142-14.737-15.969-21.51c0.078,0.604,0.156,1.212,0.234,1.817
					c0.586-1.158,1.172-2.315,1.758-3.475c-0.914-0.385-1.827-0.771-2.741-1.154c-2.586,6.543-8.133,12.151-11.805,18.119
					c0.863,0,1.727,0,2.59,0c-6.171-11.121-3.185-24.115-3.056-36.2c0.018-1.652-2.686-2.101-2.946-0.398
					c-0.414,2.692-0.828,5.385-1.242,8.078c0.836-0.221,1.671-0.441,2.507-0.662c-16.94-14.814-36.886-23.937-59.444-25.506
					C340.797,165.584,340.81,168.585,342.729,168.719L342.729,168.719z"/>
			</g>
		</g>
	</g>
	<g>
		<g>
			<path fill="#F2F2F2" d="M50.711,138.898c-3.243-72.592,133.68-60.059,174.452-44.01c-8.155,24.029-46.567,23.63-66.71,29.233
				c-27.517,7.772-39.106,12.921-40.512,38.65"/>
			<g>
				<path fill="#808080" d="M52.211,138.898c-0.53-14.48,4.984-27.144,16.323-36.223c11.779-9.432,27.355-13.612,41.959-16.077
					c31.802-5.368,66.085-2.841,97.358,4.608c5.729,1.365,11.42,2.99,16.912,5.128c-0.349-0.615-0.698-1.23-1.047-1.845
					c-4.5,12.393-17.153,17.619-28.975,20.791c-11.77,3.158-23.992,4.133-35.787,7.151c-10.693,2.737-22.456,5.983-31.264,12.934
					c-8.361,6.6-10.619,17.319-11.249,27.406c-0.121,1.933,2.88,1.921,3,0c0.738-11.809,4.085-21.952,14.695-28.194
					c10.231-6.019,23.057-9.035,34.633-11.189c20.03-3.727,49.637-5.512,57.84-28.102c0.3-0.826-0.335-1.568-1.047-1.845
					c-11.886-4.627-24.63-7.115-37.196-9.04c-16.234-2.487-32.701-3.617-49.122-3.307c-27.161,0.513-63.472,4.438-81.255,27.967
					c-6.54,8.653-9.171,19.083-8.777,29.835C49.282,140.827,52.282,140.834,52.211,138.898L52.211,138.898z"/>
			</g>
		</g>
		<g>
			<path fill="#F2F2F2" d="M49.877,137.272c9,4.5,19,8.5,28.5,13c10.5,5,29,12,40,12"/>
			<g>
				<path fill="#808080" d="M49.12,138.567c11.771,5.812,23.892,11.229,35.994,16.319c10.382,4.366,21.872,8.652,33.263,8.886
					c1.936,0.04,1.932-2.961,0-3c-10.677-0.219-21.349-4.299-31.142-8.234c-12.353-4.964-24.667-10.668-36.602-16.561
					C48.906,135.124,47.385,137.711,49.12,138.567L49.12,138.567z"/>
			</g>
		</g>
	</g>
	<g>
		<g>
			<path fill="#808080" d="M60.455,131.125c19.46,1.439,38.38-0.398,56.729,7.654c1.194,0.524,3.066-0.698,2.053-2.052
				c-9.137-12.207-20.654-24.46-23.062-40.088c-0.615,0.615-1.23,1.23-1.845,1.845c20.016,3.875,33.846,20.957,53.649,25.618
				c0.996,0.234,2.306-0.719,1.845-1.845c-4.475-10.929-0.424-23.146-2.745-34.5c-0.734,0.565-1.469,1.129-2.203,1.694
				c4.773,2.762,8.24,6.891,11.873,10.948c4.544,5.075,9.55,9.425,15.372,12.977c0.863,0.526,1.904,0.002,2.203-0.896
				c3.006-9.035,0.966-18.392,1.141-27.689c-0.854,0.354-1.707,0.707-2.561,1.061c7.959,7.705,14.846,16.403,22.565,24.338
				c0.783,0.806,2.222,0.422,2.507-0.662c1.662-6.32,4.107-12.335,6.409-18.439c-0.835,0.221-1.671,0.441-2.507,0.662
				c2.786,3.07,5.364,6.336,7.939,9.583c1.202,1.516,3.31-0.623,2.121-2.121c-2.575-3.247-5.153-6.513-7.939-9.583
				c-0.821-0.905-2.135-0.325-2.507,0.662c-2.302,6.104-4.748,12.119-6.409,18.439c0.835-0.22,1.671-0.441,2.507-0.662
				c-7.719-7.936-14.605-16.634-22.565-24.338c-0.948-0.917-2.536-0.253-2.561,1.061c-0.169,9.01,1.88,18.136-1.033,26.892
				c0.734-0.299,1.469-0.598,2.203-0.896c-6.011-3.667-10.943-8.239-15.615-13.457c-3.531-3.944-7.004-7.791-11.63-10.468
				c-1.197-0.693-2.46,0.436-2.203,1.694c2.328,11.389-1.769,23.478,2.745,34.5c0.615-0.615,1.23-1.23,1.845-1.845
				c-19.787-4.658-33.582-21.734-53.649-25.618c-1.201-0.232-2.024,0.683-1.845,1.845c2.452,15.912,14.063,28.377,23.364,40.804
				c0.684-0.684,1.368-1.368,2.053-2.052c-8.636-3.79-17.47-6.05-26.857-6.881c-10.428-0.923-20.941-0.411-31.386-1.184
				C58.524,127.982,58.538,130.983,60.455,131.125L60.455,131.125z"/>
		</g>
	</g>
	<g>
		<g>
			<path fill="#808080" d="M60.056,131.071c9.191,3.148,17.777,9.025,25.889,14.24c4.651,2.989,9.218,6.118,13.644,9.434
				c2.431,1.821,6.022,4.062,7.493,6.849c0.903,1.712,3.493,0.195,2.591-1.514c-1.428-2.705-4.457-4.729-6.792-6.562
				c-4.312-3.386-8.854-6.481-13.428-9.499c-8.903-5.873-18.431-12.357-28.598-15.84C59.019,127.55,58.237,130.448,60.056,131.071
				L60.056,131.071z"/>
		</g>
	</g>
	<g>
		<g>
			<path fill="#29ABE2" d="M245.316,37.333c5.046,5.254,11.322,11.496,13.493,18.537c2.644,8.573-3.752,18.625-6.379,26.503
				c0.615-0.349,1.23-0.698,1.845-1.047c-0.148-0.056-0.296-0.111-0.445-0.167c0.299,0.735,0.598,1.469,0.896,2.204
				c0.261-0.587,0.427-1.057,0.596-1.691c0.499-1.872-2.395-2.665-2.893-0.798c-0.098,0.325-0.196,0.65-0.293,0.975
				c-0.417,0.937-0.078,1.838,0.896,2.204c0.148,0.056,0.296,0.111,0.444,0.167c0.795,0.298,1.605-0.327,1.845-1.047
				c2.912-8.733,8.04-17.304,6.672-26.797c-1.155-8.016-9.194-15.578-14.558-21.163C246.095,33.814,243.977,35.938,245.316,37.333
				L245.316,37.333z"/>
		</g>
	</g>
	<g>
		<g>
			<path fill="#29ABE2" d="M262.12,42.068c5.017,3.502,12.166,8.688,11.1,15.392c-0.682,4.284-1.765,10.333-4.138,14.056
				c-1.043,1.636,1.554,3.14,2.591,1.514c3.006-4.717,4.379-12.34,4.819-17.812c0.515-6.413-8.295-12.555-12.857-15.74
				C262.043,38.367,260.546,40.969,262.12,42.068L262.12,42.068z"/>
		</g>
	</g>
	<g>
		<g>
			<path fill="#29ABE2" d="M277.315,43.333c2.502,2.512,5.418,5.086,6.74,8.463c1.32,3.376-0.082,7.332-1.125,10.577
				c-0.595,1.847,2.303,2.632,2.893,0.798c1.275-3.965,2.374-8.066,1.125-12.173c-1.188-3.901-4.742-7.007-7.512-9.787
				C278.071,39.84,275.95,41.961,277.315,43.333L277.315,43.333z"/>
		</g>
	</g>
	<g>
		<path fill="#FFFFFF" d="M134.877,32.106c5.333-4,13.333-5.333,20.667-5.333c0,3.333,0.667,7.333,0,10.667
			c-6.667-0.667-15.333-2-22-4.667c6,0.667,19.333,5.333,21.333,0c-6.667,0-14,1.333-20.667,0"/>
		<g>
			<path fill="#333333" d="M135.634,33.401c5.846-4.08,12.932-5.048,19.91-5.129c-0.5-0.5-1-1-1.5-1.5
				c0.082,3.427,0.543,6.85,0.054,10.268c0.482-0.367,0.964-0.734,1.446-1.101c-7.343-0.767-14.676-1.976-21.601-4.613
				c-0.133,0.982-0.266,1.964-0.399,2.946c5.543,0.723,19.125,6.343,22.629-0.743c0.488-0.987-0.094-2.274-1.295-2.257
				c-6.763,0.095-13.54,1.192-20.268,0.054c-1.892-0.32-2.702,2.57-0.798,2.893c7.025,1.189,14.003,0.153,21.065,0.054
				c-0.432-0.752-0.863-1.505-1.295-2.257c-2.39,4.832-15.886-0.202-20.038-0.743c-1.798-0.234-1.854,2.393-0.399,2.946
				c7.176,2.732,14.793,3.925,22.399,4.72c0.595,0.062,1.36-0.499,1.446-1.101c0.531-3.708,0.143-7.34,0.054-11.065
				c-0.02-0.81-0.667-1.51-1.5-1.5c-7.465,0.086-15.171,1.175-21.423,5.538C132.546,31.909,134.043,34.511,135.634,33.401
				L135.634,33.401z"/>
		</g>
	</g>
	<g>
		<g>
			<path fill="#4D4D4D" d="M51.768,38.243c1.602-26.842,6.896-35.474,39.271-35.32c21.584,0.102,68.906-4.076,81.71,3.761"/>
			<g>
				<path fill="#333333" d="M53.268,38.243c0.604-9.646,1.087-22.074,9.627-28.393c9.271-6.859,23.235-5.286,34.041-5.481
					c13.646-0.248,27.275-0.993,40.927-0.965c10.568,0.021,24.616-0.919,34.129,4.576c1.678,0.969,3.188-1.624,1.514-2.591
					c-10.033-5.796-24.519-4.921-35.643-4.985C122.865,0.318,107.89,1.31,92.896,1.423c-11.171,0.084-24.573-0.368-33.56,7.472
					c-7.946,6.932-8.462,19.663-9.068,29.349C50.146,40.176,53.147,40.164,53.268,38.243L53.268,38.243z"/>
			</g>
		</g>
		<g>
			<path fill="#4D4D4D" d="M95.668,23.192c4.225,9.263,16.231,42.331,33.86,40.507c13.338-1.111,30.691-33.894,37.257-43.105
				c15.687,4.036,31.978,12.769,45.251,21.634c-2.412,4.83-3.884,11.719-5.827,17.579c34.71-41.944-18.708-27.525-33.461-53.124"/>
			<g>
				<path fill="#333333" d="M94.373,23.949c3.969,8.805,7.572,17.692,12.823,25.851c4.8,7.458,11.817,15.48,21.41,15.463
					c9.055-0.015,16.276-9.952,21.165-16.316c6.747-8.783,11.963-18.554,18.311-27.596c-0.565,0.229-1.129,0.459-1.694,0.689
					c16.148,4.32,31.02,12.298,44.893,21.483c-0.18-0.684-0.359-1.369-0.539-2.052c-2.67,5.74-4.054,11.93-5.978,17.937
					c-0.441,1.376,1.543,2.638,2.507,1.459c7.709-9.427,19.249-25.007,4.516-33.554c-12.632-7.328-29.493-7.642-37.742-21.388
					c-0.994-1.656-3.589-0.149-2.591,1.515c6.923,11.536,20.285,15.095,32.112,19.479c4.532,1.68,10.697,3.89,12.347,8.963
					c2.51,7.719-6.487,17.634-10.763,22.863c0.835,0.486,1.671,0.973,2.507,1.459c1.841-5.748,3.121-11.729,5.676-17.221
					c0.36-0.774,0.192-1.569-0.539-2.052c-14.08-9.322-29.223-17.402-45.609-21.785c-0.692-0.185-1.301,0.129-1.694,0.689
					c-5.146,7.332-9.535,15.177-14.64,22.545c-4.706,6.791-12.197,18.681-21.322,19.817c-9.907,1.234-17.157-9.548-21.553-16.816
					c-4.411-7.293-7.521-15.205-11.012-22.949C96.17,20.673,93.585,22.2,94.373,23.949L94.373,23.949z"/>
			</g>
		</g>
		<g>
			<path fill="#4D4D4D" d="M51.768,38.243c9.401,23.514,39.949-6.298,43.901-15.051"/>
			<g>
				<path fill="#333333" d="M50.472,39c9.761,22.788,39.849-1.224,46.492-15.051c0.833-1.735-1.753-3.258-2.591-1.515
					c-5.72,11.908-32.722,35.103-41.31,15.051C52.303,35.712,49.72,37.242,50.472,39L50.472,39z"/>
			</g>
		</g>
	</g>
	<path fill="#F2F2F2" stroke="#F2F2F2" stroke-miterlimit="10" d="M140.877,8.772c3,0,8,1,12,1c-1,6-4,12-7,18c3-8,1-17-9-18
		L140.877,8.772z"/>
	<path fill="#F2F2F2" stroke="#F2F2F2" stroke-width="0.6817" stroke-miterlimit="10" d="M80.24,10.272
		c2.522,0,6.727,0.553,10.09,0.553c-0.841,3.316-3.363,6.631-5.886,9.947c2.522-4.421,0.841-9.395-7.567-9.947L80.24,10.272z"/>
</g>
</svg>
